<?xml version="1.0" encoding="utf-8"?>
<!-- Generator: Adobe Illustrator 25.4.1, SVG Export Plug-In . SVG Version: 6.00 Build 0)  -->
<svg version="1.1" id="Layer_1" xmlns="http://www.w3.org/2000/svg" xmlns:xlink="http://www.w3.org/1999/xlink" x="0px" y="0px"
	 viewBox="0 0 137.3 62.7" style="enable-background:new 0 0 137.3 62.7;" xml:space="preserve">
<style type="text/css">
	.st0{enable-background:new    ;}
	.st1{fill:#FFFFFF;}
</style>
<g class="st0">
	<path class="st1" d="M5.7,16L2.6,6.2V16H0.4V0.4H3l2.8,9v-9H8V16H5.7z"/>
	<path class="st1" d="M13.6,16.2c-1.3,0-2.3-0.4-3-1.2s-1-1.8-1-3.1V4.4c0-1.3,0.3-2.3,1-3.1s1.7-1.1,3-1.1s2.3,0.4,3,1.1
		c0.7,0.8,1,1.8,1,3.1V12c0,1.3-0.3,2.3-1,3.1C15.9,15.8,14.9,16.2,13.6,16.2z M13.6,14c0.9,0,1.4-0.5,1.4-1.6V4
		c0-1.1-0.5-1.6-1.4-1.6S12.3,2.9,12.3,4v8.4C12.3,13.4,12.7,14,13.6,14z"/>
</g>
<g class="st0">
	<path class="st1" d="M0.4,39V23.4h3.9c1.3,0,2.2,0.3,2.8,0.9S8,25.8,8,26.9v3.3c0,1.2-0.3,2-0.9,2.6c-0.6,0.6-1.5,0.9-2.8,0.9H3V39
		H0.4z M4,25.5H3v6.1h1c0.9,0,1.3-0.4,1.3-1.3v-3.6C5.3,26,4.9,25.5,4,25.5z"/>
	<path class="st1" d="M13.4,39.2c-1.3,0-2.3-0.4-3-1.2s-1-1.8-1-3.1v-7.6c0-1.3,0.3-2.3,1-3.1c0.7-0.8,1.7-1.1,3-1.1s2.3,0.4,3,1.1
		c0.7,0.8,1,1.8,1,3.1V35c0,1.3-0.3,2.3-1,3.1C15.7,38.8,14.7,39.2,13.4,39.2z M13.4,37c0.9,0,1.4-0.5,1.4-1.6V27
		c0-1.1-0.5-1.6-1.4-1.6s-1.3,0.5-1.3,1.6v8.4C12,36.5,12.5,37,13.4,37z"/>
	<path class="st1" d="M24.4,23.4h2.5l-3,15.6H21l-3-15.6h2.7l1.8,10.9l0,0L24.4,23.4z"/>
	<path class="st1" d="M28.1,39V23.4h6.3v2.1h-3.6V30h2.6v2.1h-2.6v4.7h3.6V39H28.1z"/>
	<path class="st1" d="M41,39l-2.5-7.2V39h-2.6V23.4h3.8c1.3,0,2.2,0.3,2.8,0.9s0.9,1.5,0.9,2.6v2c0,1.7-0.7,2.7-2.1,3l2.5,7.1H41z
		 M39.4,25.5h-0.9v4.9h0.9c0.9,0,1.3-0.4,1.3-1.3v-2.3C40.7,26,40.2,25.5,39.4,25.5z"/>
	<path class="st1" d="M44.3,25.5v-2.1h7v2.1h-2.2V39h-2.6V25.5H44.3z"/>
	<path class="st1" d="M60.7,23.4l-2.9,9.7V39h-2.6v-5.9l-2.9-9.7H55l1.6,5.9l0,0l1.6-5.9C58.2,23.4,60.7,23.4,60.7,23.4z"/>
</g>
</svg>
